<svg width="25" height="25" viewBox="0 0 25 25" fill="none" xmlns="http://www.w3.org/2000/svg">
<g clip-path="url(#clip0_2002_442)">
<path d="M12.5269 0.390625C5.68945 0.390625 0.390625 5.3877 0.390625 12.1372C0.390625 15.6675 1.84131 18.7183 4.20264 20.8257C4.61035 21.1924 4.52637 21.4048 4.5957 23.6689C4.60116 23.8275 4.64534 23.9824 4.72439 24.12C4.80344 24.2576 4.91495 24.3738 5.0492 24.4584C5.18346 24.543 5.33637 24.5934 5.49461 24.6054C5.65285 24.6173 5.8116 24.5904 5.95703 24.5269C8.54053 23.3892 8.57373 23.2993 9.01172 23.4185C16.4966 25.4785 24.6094 20.6885 24.6094 12.1372C24.6094 5.3877 19.3647 0.390625 12.5269 0.390625ZM19.814 9.43018L16.2495 15.0732C16.1149 15.2854 15.9379 15.4675 15.7297 15.6082C15.5214 15.7488 15.2863 15.8448 15.0392 15.8904C14.7921 15.9359 14.5382 15.9299 14.2935 15.8727C14.0488 15.8155 13.8186 15.7084 13.6172 15.5581L10.7813 13.4355C10.6545 13.3405 10.5003 13.2891 10.3418 13.2891C10.1833 13.2891 10.0291 13.3405 9.90234 13.4355L6.07568 16.3379C5.56494 16.7251 4.896 16.1133 5.24023 15.5728L8.80469 9.92969C8.93924 9.71743 9.1162 9.53527 9.32446 9.39462C9.53273 9.25398 9.7678 9.15788 10.015 9.11235C10.2621 9.06683 10.516 9.07286 10.7607 9.13007C11.0054 9.18729 11.2357 9.29444 11.437 9.44482L14.272 11.5669C14.3988 11.662 14.553 11.7134 14.7114 11.7134C14.8699 11.7134 15.0241 11.662 15.1509 11.5669L18.9795 8.66748C19.4893 8.27783 20.1582 8.88916 19.814 9.43018Z" fill="black"/>
</g>
<defs>
<clipPath id="clip0_2002_442">
<rect width="25" height="25" fill="white"/>
</clipPath>
</defs>
</svg>
