<svg width="16" height="17" viewBox="0 0 16 17" fill="none" xmlns="http://www.w3.org/2000/svg">
<g clip-path="url(#clip0_2002_299)">
<path d="M10.0333 3.95309C10.6845 4.08013 11.2829 4.39859 11.752 4.86771C12.2212 5.33683 12.5396 5.93527 12.6667 6.58642M10.0333 1.28642C11.3862 1.43671 12.6477 2.04254 13.6108 3.00443C14.5739 3.96632 15.1813 5.22709 15.3333 6.57975M14.6667 11.8998V13.8998C14.6674 14.0854 14.6294 14.2692 14.555 14.4393C14.4806 14.6094 14.3715 14.7621 14.2347 14.8877C14.0979 15.0132 13.9364 15.1087 13.7605 15.1682C13.5846 15.2277 13.3982 15.2498 13.2133 15.2331C11.1619 15.0102 9.19133 14.3092 7.46 13.1864C5.84922 12.1629 4.48356 10.7972 3.46 9.18642C2.33332 7.44722 1.63216 5.46708 1.41333 3.40642C1.39667 3.22207 1.41858 3.03626 1.47767 2.86084C1.53675 2.68541 1.63171 2.52421 1.75651 2.3875C1.88131 2.25079 2.0332 2.14156 2.20253 2.06677C2.37185 1.99198 2.55489 1.95326 2.74 1.95309H4.74C5.06354 1.9499 5.37719 2.06447 5.62251 2.27544C5.86782 2.48641 6.02805 2.77939 6.07333 3.09976C6.15775 3.7398 6.3143 4.36824 6.54 4.97309C6.6297 5.2117 6.64911 5.47103 6.59594 5.72034C6.54277 5.96965 6.41924 6.1985 6.24 6.37976L5.39333 7.22642C6.34237 8.89545 7.7243 10.2774 9.39333 11.2264L10.24 10.3798C10.4213 10.2005 10.6501 10.077 10.8994 10.0238C11.1487 9.97065 11.4081 9.99006 11.6467 10.0798C12.2515 10.3055 12.88 10.462 13.52 10.5464C13.8438 10.5921 14.1396 10.7552 14.351 11.0048C14.5624 11.2543 14.6748 11.5728 14.6667 11.8998Z" stroke="black" stroke-width="2" stroke-linecap="round" stroke-linejoin="round"/>
</g>
<defs>
<clipPath id="clip0_2002_299">
<rect width="16" height="16" fill="white" transform="translate(0 0.619755)"/>
</clipPath>
</defs>
</svg>
